<svg xmlns="http://www.w3.org/2000/svg" viewBox="0 0 960 420" width="960" height="420" role="img"><title>ECG — live filtering, no filter reads a future sample</title><rect x="0" y="0" width="960" height="420" fill="#ffffff"/><text x="68" y="21" font-family="ui-sans-serif, -apple-system, Segoe UI, Helvetica, Arial, sans-serif" font-size="15" font-weight="600" fill="#1f2328">ECG — live filtering, no filter reads a future sample</text><text x="68" y="38" font-family="ui-sans-serif, -apple-system, Segoe UI, Helvetica, Arial, sans-serif" font-size="11.5" fill="#656d76">window 21, samples 1870–2269</text><line x1="68" y1="300.7" x2="942" y2="300.7" stroke="#e4e8ed" stroke-width="1"/><text x="60" y="304.2" text-anchor="end" font-family="ui-sans-serif, -apple-system, Segoe UI, Helvetica, Arial, sans-serif" font-size="11" fill="#656d76">-8</text><line x1="68" y1="231.3" x2="942" y2="231.3" stroke="#e4e8ed" stroke-width="1"/><text x="60" y="234.8" text-anchor="end" font-family="ui-sans-serif, -apple-system, Segoe UI, Helvetica, Arial, sans-serif" font-size="11" fill="#656d76">-7</text><line x1="68" y1="161.9" x2="942" y2="161.9" stroke="#e4e8ed" stroke-width="1"/><text x="60" y="165.4" text-anchor="end" font-family="ui-sans-serif, -apple-system, Segoe UI, Helvetica, Arial, sans-serif" font-size="11" fill="#656d76">-6</text><line x1="68" y1="92.5" x2="942" y2="92.5" stroke="#e4e8ed" stroke-width="1"/><text x="60" y="96" text-anchor="end" font-family="ui-sans-serif, -apple-system, Segoe UI, Helvetica, Arial, sans-serif" font-size="11" fill="#656d76">-5</text><line x1="133.7" y1="54" x2="133.7" y2="346" stroke="#e4e8ed" stroke-width="1"/><text x="133.7" y="362" text-anchor="middle" font-family="ui-sans-serif, -apple-system, Segoe UI, Helvetica, Arial, sans-serif" font-size="11" fill="#656d76">1900</text><line x1="243.2" y1="54" x2="243.2" y2="346" stroke="#e4e8ed" stroke-width="1"/><text x="243.2" y="362" text-anchor="middle" font-family="ui-sans-serif, -apple-system, Segoe UI, Helvetica, Arial, sans-serif" font-size="11" fill="#656d76">1950</text><line x1="352.8" y1="54" x2="352.8" y2="346" stroke="#e4e8ed" stroke-width="1"/><text x="352.8" y="362" text-anchor="middle" font-family="ui-sans-serif, -apple-system, Segoe UI, Helvetica, Arial, sans-serif" font-size="11" fill="#656d76">2000</text><line x1="462.3" y1="54" x2="462.3" y2="346" stroke="#e4e8ed" stroke-width="1"/><text x="462.3" y="362" text-anchor="middle" font-family="ui-sans-serif, -apple-system, Segoe UI, Helvetica, Arial, sans-serif" font-size="11" fill="#656d76">2050</text><line x1="571.8" y1="54" x2="571.8" y2="346" stroke="#e4e8ed" stroke-width="1"/><text x="571.8" y="362" text-anchor="middle" font-family="ui-sans-serif, -apple-system, Segoe UI, Helvetica, Arial, sans-serif" font-size="11" fill="#656d76">2100</text><line x1="681.3" y1="54" x2="681.3" y2="346" stroke="#e4e8ed" stroke-width="1"/><text x="681.3" y="362" text-anchor="middle" font-family="ui-sans-serif, -apple-system, Segoe UI, Helvetica, Arial, sans-serif" font-size="11" fill="#656d76">2150</text><line x1="790.9" y1="54" x2="790.9" y2="346" stroke="#e4e8ed" stroke-width="1"/><text x="790.9" y="362" text-anchor="middle" font-family="ui-sans-serif, -apple-system, Segoe UI, Helvetica, Arial, sans-serif" font-size="11" fill="#656d76">2200</text><line x1="900.4" y1="54" x2="900.4" y2="346" stroke="#e4e8ed" stroke-width="1"/><text x="900.4" y="362" text-anchor="middle" font-family="ui-sans-serif, -apple-system, Segoe UI, Helvetica, Arial, sans-serif" font-size="11" fill="#656d76">2250</text><line x1="68" y1="346" x2="942" y2="346" stroke="#656d76" stroke-width="1"/><line x1="68" y1="54" x2="68" y2="346" stroke="#656d76" stroke-width="1"/><text x="505" y="379" text-anchor="middle" font-family="ui-sans-serif, -apple-system, Segoe UI, Helvetica, Arial, sans-serif" font-size="11.5" fill="#1f2328">sample index</text><text x="16" y="200" text-anchor="middle" font-family="ui-sans-serif, -apple-system, Segoe UI, Helvetica, Arial, sans-serif" font-size="11.5" fill="#1f2328" transform="rotate(-90 16 200)">value</text><polyline fill="none" stroke="#8c959f" stroke-width="1" stroke-linejoin="round" stroke-linecap="round" points="68,151.4 70.2,152.4 72.4,131.5 74.6,110.5 76.8,127.9 79,145 81.1,144.7 83.3,129.2 85.5,99.2 87.7,121.1 89.9,96.2 92.1,74.1 94.3,91.5 96.5,92.8 98.7,124.5 100.9,155.2 103,180.7 105.2,202.7 107.4,249.2 109.6,240.6 111.8,239.2 114,260.1 116.2,284.3 118.4,262.3 120.6,287.5 122.8,281.7 125,284.4 127.1,257.1 129.3,246.5 131.5,257 133.7,266.8 135.9,256.3 138.1,268.9 140.3,235.8 142.5,270.2 144.7,247.9 146.9,232 149,216.6 151.2,231.2 153.4,199.5 155.6,197.2 157.8,203.1 160,192.3 162.2,182.5 164.4,179.8 166.6,190.9 168.8,206.9 171,204.1 173.1,198.2 175.3,187.1 177.5,187.6 179.7,173.1 181.9,203.9 184.1,201.7 186.3,200.9 188.5,171.6 190.7,171 192.9,184.2 195,170.3 197.2,174.2 199.4,184.2 201.6,198.4 203.8,174.7 206,189.9 208.2,210.4 210.4,177.8 212.6,194.1 214.8,195.3 217,197.1 219.1,209.4 221.3,182.2 223.5,205.1 225.7,174.1 227.9,207.1 230.1,189.2 232.3,181.5 234.5,195.9 236.7,209.3 238.9,213.1 241,194.7 243.2,208.2 245.4,199.8 247.6,222.2 249.8,201.3 252,212.4 254.2,202.8 256.4,208.5 258.6,219.5 260.8,195.5 263,212.2 265.1,186.9 267.3,187.2 269.5,207.5 271.7,223 273.9,194.2 276.1,202.6 278.3,225.8 280.5,194.2 282.7,218.2 284.9,195.6 287,219.5 289.2,196.5 291.4,205.7 293.6,198.6 295.8,202.8 298,215.4 300.2,193.3 302.4,194.6 304.6,200.6 306.8,185.8 309,180.1 311.1,191.3 313.3,188.9 315.5,198.6 317.7,196.8 319.9,178 322.1,184.1 324.3,180.8 326.5,194.1 328.7,184.9 330.9,201.6 333,171.7 335.2,175.6 337.4,169.8 339.6,195 341.8,186.4 344,191.7 346.2,178.5 348.4,197.4 350.6,183 352.8,167 355,192.4 357.1,178 359.3,180.4 361.5,159.7 363.7,171.9 365.9,169.9 368.1,164.2 370.3,196.6 372.5,158.5 374.7,175.9 376.9,171.7 379,174.8 381.2,193.4 383.4,161.1 385.6,197.8 387.8,181.6 390,167.4 392.2,181 394.4,177 396.6,191.8 398.8,197.6 401,162.5 403.1,167.2 405.3,172.8 407.5,186.8 409.7,167.5 411.9,190.3 414.1,180.4 416.3,170.6 418.5,161.2 420.7,172.4 422.9,169.8 425,160.2 427.2,172.7 429.4,183.8 431.6,180 433.8,191.9 436,184.7 438.2,172.9 440.4,193.7 442.6,196.4 444.8,175.8 447,171.7 449.1,197.6 451.3,185.2 453.5,175.4 455.7,194.1 457.9,177.3 460.1,172.7 462.3,192.7 464.5,200.8 466.7,162.5 468.9,169.2 471,177.3 473.2,195.2 475.4,177.2 477.6,166.1 479.8,158.5 482,172.2 484.2,193.5 486.4,164.1 488.6,166.2 490.8,187.5 493,179.5 495.1,158.6 497.3,189.6 499.5,183.8 501.7,189.2 503.9,172.1 506.1,194.8 508.3,155.8 510.5,188.4 512.7,158.9 514.9,172.6 517,172.2 519.2,171.1 521.4,180.3 523.6,165.6 525.8,171.2 528,186.4 530.2,174.4 532.4,191.8 534.6,154.2 536.8,173.1 539,178.4 541.1,187.8 543.3,188.7 545.5,184.2 547.7,159.9 549.9,170.5 552.1,160.9 554.3,151.2 556.5,163.6 558.7,158 560.9,167.5 563,169.3 565.2,182.3 567.4,153 569.6,174.2 571.8,183.5 574,185.7 576.2,145.3 578.4,156.4 580.6,160.5 582.8,144.3 585,181.4 587.1,159.1 589.3,175.6 591.5,171.4 593.7,154.4 595.9,151.6 598.1,167.1 600.3,185 602.5,177.2 604.7,176.5 606.9,185.8 609,147.5 611.2,185.7 613.4,159.1 615.6,153.1 617.8,163.8 620,189.6 622.2,181.9 624.4,184.5 626.6,189.9 628.8,190.2 631,184.5 633.1,171.5 635.3,179.5 637.5,201.1 639.7,197.3 641.9,193.7 644.1,188.2 646.3,187.4 648.5,169 650.7,183 652.9,172.1 655,199.7 657.2,179.9 659.4,170 661.6,167.5 663.8,185 666,173.3 668.2,177 670.4,193.7 672.6,189.8 674.8,186.1 677,200.1 679.1,191.8 681.3,206.1 683.5,174 685.7,168.4 687.9,183.8 690.1,163.3 692.3,173.8 694.5,168.4 696.7,172.3 698.9,168 701,199.8 703.2,170.2 705.4,207.1 707.6,185.2 709.8,192.6 712,165.2 714.2,156.8 716.4,138.6 718.6,134.3 720.8,121.1 723,133.5 725.1,137.7 727.3,138.2 729.5,114.2 731.7,120.8 733.9,129.8 736.1,97 738.3,86.5 740.5,97.7 742.7,87.5 744.9,96.2 747,139.4 749.2,165.4 751.4,186.7 753.6,238.3 755.8,215.7 758,268.1 760.2,245.6 762.4,267.4 764.6,246.3 766.8,244.4 769,240.7 771.1,269.1 773.3,258 775.5,281.5 777.7,256 779.9,265.2 782.1,268.1 784.3,244.8 786.5,270.9 788.7,262.8 790.9,231.7 793,240.7 795.2,244.6 797.4,202.1 799.6,188.9 801.8,182.5 804,192.6 806.2,200.1 808.4,191.7 810.6,200.1 812.8,204.4 815,193.6 817.1,191.6 819.3,186.7 821.5,170.2 823.7,197.8 825.9,181.6 828.1,171 830.3,174.9 832.5,192.6 834.7,205.9 836.9,176.5 839,200.9 841.2,205.5 843.4,204.7 845.6,190 847.8,203.8 850,173.9 852.2,198.9 854.4,202.1 856.6,209.8 858.8,193.2 861,211.2 863.1,197.7 865.3,205.8 867.5,211 869.7,187 871.9,214 874.1,197.2 876.3,181 878.5,180.6 880.7,183.6 882.9,183.4 885,196.3 887.2,197.6 889.4,188.7 891.6,196 893.8,188.8 896,199.5 898.2,191.2 900.4,182.4 902.6,186.2 904.8,205.5 907,196.5 909.1,214.4 911.3,219.6 913.5,222.1 915.7,195.1 917.9,225.1 920.1,212.9 922.3,223.2 924.5,219.5 926.7,187.6 928.9,203.7 931,185.4 933.2,205.8 935.4,201.2 937.6,195.8 939.8,205.3 942,220.4"/><polyline fill="none" stroke="#0969da" stroke-width="1.9" stroke-linejoin="round" stroke-linecap="round" points="68,168.5 70.2,161.1 72.4,144.2 74.6,120.6 76.8,125.1 79,138.4 81.1,142 83.3,133.9 85.5,109.3 87.7,117.6 89.9,101.3 92.1,78.8 94.3,89.4 96.5,92.3 98.7,116.7 100.9,142.7 103,159.7 105.2,189 107.4,231.3 109.6,239.5 111.8,239.4 114,256.7 116.2,280.7 118.4,265 120.6,284.2 122.8,282 125,284 127.1,261.4 129.3,248.5 131.5,255.9 133.7,266.1 135.9,256.7 138.1,268.2 140.3,238.3 142.5,265.5 144.7,251.8 146.9,239.4 149,227 151.2,230 153.4,209.6 155.6,199.8 157.8,202.2 160,193.9 162.2,184.1 164.4,180.3 166.6,189.6 168.8,203.5 171,203.7 173.1,199.5 175.3,189.4 177.5,187.8 179.7,175.8 181.9,198.5 184.1,200.6 186.3,200.9 188.5,182.9 190.7,179.5 192.9,183.1 195,179.4 197.2,177.6 199.4,180.3 201.6,185.8 203.8,183.8 206,185.4 208.2,188.2 210.4,187.2 212.6,189.4 214.8,189.9 217,190.5 219.1,196.2 221.3,190.9 223.5,194.7 225.7,189.9 227.9,192.8 230.1,192.8 232.3,189 234.5,191.6 236.7,195.5 238.9,200.2 241,197.2 243.2,198.5 245.4,198.3 247.6,205.8 249.8,203.7 252,206.6 254.2,206 256.4,206.3 258.6,210.7 260.8,205.9 263,207.5 265.1,201.5 267.3,198.7 269.5,200.1 271.7,204.9 273.9,203.6 276.1,203.7 278.3,205.9 280.5,205.7 282.7,206.2 284.9,205.3 287,206.7 289.2,205.9 291.4,206.1 293.6,205.1 295.8,205.2 298,205.4 300.2,204.9 302.4,204 304.6,202.8 306.8,199.4 309,189.8 311.1,190.9 313.3,189.4 315.5,192.9 317.7,194.2 319.9,187.9 322.1,185.6 324.3,183.6 326.5,188.6 328.7,186.8 330.9,193.8 333,185 335.2,180.5 337.4,175.8 339.6,183.7 341.8,184.4 344,186.2 346.2,185.1 348.4,186.7 350.6,186.3 352.8,184.5 355,185.1 357.1,184.4 359.3,183.8 361.5,179.7 363.7,176.8 365.9,174.2 368.1,169.9 370.3,178.4 372.5,174.3 374.7,175 376.9,174.7 379,174.6 381.2,177.4 383.4,174.1 385.6,179.4 387.8,179.8 390,176.9 392.2,177.4 394.4,176.5 396.6,178.3 398.8,184 401,178.2 403.1,177.3 405.3,176.7 407.5,177.9 409.7,177.2 411.9,178.2 414.1,178.8 416.3,177.9 418.5,176.6 420.7,176.1 422.9,175.2 425,171 427.2,172 429.4,173.7 431.6,175.2 433.8,176.4 436,179.2 438.2,177.5 440.4,182.7 442.6,187.5 444.8,183.2 447,179.5 449.1,184.1 451.3,184.2 453.5,182.1 455.7,184.6 457.9,183.4 460.1,178.9 462.3,184.2 464.5,188 466.7,182.1 468.9,179.5 471,180.9 473.2,183.3 475.4,182.8 477.6,180.5 479.8,174.5 482,173.9 484.2,178.6 486.4,176.4 488.6,174.5 490.8,177.2 493,176.8 495.1,174.6 497.3,176.8 499.5,177.3 501.7,178.2 503.9,177.6 506.1,181.5 508.3,176.8 510.5,177.1 512.7,176.1 514.9,176.2 517,175.9 519.2,174.6 521.4,175.2 523.6,174.3 525.8,174.7 528,176.1 530.2,175.3 532.4,176.7 534.6,175.3 536.8,175.1 539,175.2 541.1,176.9 543.3,178.6 545.5,179.4 547.7,175.4 549.9,175.3 552.1,173.4 554.3,169.4 556.5,163.9 558.7,161.8 560.9,164.3 563,166.2 565.2,170.3 567.4,167 569.6,168.1 571.8,170.9 574,173 576.2,169.1 578.4,168.3 580.6,165.6 582.8,160.3 585,165.3 587.1,165.3 589.3,166 591.5,165.6 593.7,165.1 595.9,163.5 598.1,164.2 600.3,166.1 602.5,167 604.7,168.9 606.9,173.9 609,167.7 611.2,169.4 613.4,168.3 615.6,167 617.8,166.3 620,170.2 622.2,171 624.4,173 626.6,177 628.8,181.7 631,183.2 633.1,178.8 635.3,179.4 637.5,186.1 639.7,189.8 641.9,191.4 644.1,190 646.3,189.3 648.5,184.1 650.7,183.4 652.9,176.8 655,185.5 657.2,184 659.4,179.2 661.6,176.9 663.8,180.9 666,178.7 668.2,178.3 670.4,181.9 672.6,182.9 674.8,183 677,184.9 679.1,190 681.3,200.2 683.5,188.3 685.7,183.8 687.9,183.5 690.1,181.9 692.3,179.4 694.5,177.3 696.7,175.2 698.9,173.1 701,179.8 703.2,178.1 705.4,181.9 707.6,182.5 709.8,183.2 712,181.8 714.2,177.9 716.4,169 718.6,153.6 720.8,134.7 723,132.5 725.1,135.2 727.3,137.1 729.5,121.7 731.7,121 733.9,126.9 736.1,105.2 738.3,90.3 740.5,96.1 742.7,88.9 744.9,95.3 747,129.9 749.2,156.8 751.4,174.9 753.6,217.2 755.8,216.9 758,257.8 760.2,248 762.4,264.7 764.6,249.3 766.8,245.5 769,241.9 771.1,263.1 773.3,259.1 775.5,277.5 777.7,259.5 779.9,264.5 782.1,267.9 784.3,246.7 786.5,268.4 788.7,263.5 790.9,238.6 793,241.1 795.2,244.1 797.4,225.6 799.6,200.6 801.8,186.5 804,191 806.2,198 808.4,193.1 810.6,198.3 812.8,202.7 815,195.7 817.1,192.5 819.3,187.7 821.5,173.7 823.7,193.3 825.9,183.8 828.1,174 830.3,174.7 832.5,187.6 834.7,197.7 836.9,185.9 839,191.2 841.2,191.2 843.4,193 845.6,192.4 847.8,197.3 850,191.4 852.2,192 854.4,193.8 856.6,197.8 858.8,196.5 861,201.4 863.1,200.7 865.3,202.6 867.5,204.8 869.7,199.3 871.9,203.9 874.1,201.4 876.3,198.5 878.5,196.5 880.7,190.8 882.9,189 885,192 887.2,193.9 889.4,192.5 891.6,193.8 893.8,192.9 896,193.5 898.2,193 900.4,189.9 902.6,189.4 904.8,194 907,193.8 909.1,201.7 911.3,210.9 913.5,218.1 915.7,206.8 917.9,216.5 920.1,214.6 922.3,220.1 924.5,219.7 926.7,206.6 928.9,206.8 931,201.1 933.2,201.4 935.4,201.6 937.6,199.2 939.8,201.7 942,206"/><polyline fill="none" stroke="#8250df" stroke-width="1.7" stroke-linejoin="round" stroke-linecap="round" stroke-dasharray="7 2 2 2" points="68,166.3 70.2,158.8 72.4,141.9 74.6,114.9 76.8,125.3 79,138.5 81.1,142.2 83.3,133.5 85.5,108.4 87.7,117.8 89.9,100.7 92.1,78.8 94.3,89.4 96.5,92.3 98.7,117.5 100.9,145.1 103,170.8 105.2,196 107.4,241.5 109.6,240.8 111.8,239.5 114,256.8 116.2,280.7 118.4,264.7 120.6,285.6 122.8,281.9 125,284.3 127.1,258.1 129.3,246.9 131.5,256.5 133.7,266.2 135.9,256.7 138.1,268.4 140.3,237.3 142.5,267.8 144.7,250.3 146.9,236.9 149,225.5 151.2,229.7 153.4,209.2 155.6,199.8 157.8,202.2 160,193.9 162.2,184.1 164.4,180.3 166.6,189.6 168.8,204.4 171,204.2 173.1,198.8 175.3,188.7 177.5,187.8 179.7,175.8 181.9,198.6 184.1,200.6 186.3,201 188.5,180 190.7,175.3 192.9,181.3 195,175.8 197.2,176.8 199.4,180.3 201.6,185.2 203.8,182.6 206,184.5 208.2,194.2 210.4,187.4 212.6,189.4 214.8,189.9 217,190.5 219.1,196.6 221.3,191.4 223.5,195.3 225.7,187.9 227.9,195 230.1,193.4 232.3,188.8 234.5,191.6 236.7,195.9 238.9,204 241,198.4 243.2,199.6 245.4,198.4 247.6,208.1 249.8,203.7 252,206.7 254.2,206 256.4,206.8 258.6,211.1 260.8,206.1 263,208 265.1,200.5 267.3,195.7 269.5,200 271.7,205.1 273.9,203.4 276.1,203.3 278.3,207.2 280.5,205.6 282.7,206.4 284.9,205.3 287,206.7 289.2,205.9 291.4,205.9 293.6,205.1 295.8,204.9 298,205.4 300.2,204.7 302.4,203.5 304.6,202.8 306.8,199.4 309,189.6 311.1,190.7 313.3,189.4 315.5,192.9 317.7,194.4 319.9,187.8 322.1,185.6 324.3,183.4 326.5,188.6 328.7,186.8 330.9,194 333,185 335.2,180.2 337.4,174.8 339.6,183.7 341.8,184.5 344,186.1 346.2,185.1 348.4,186.7 350.6,186.1 352.8,184.5 355,185.1 357.1,184.1 359.3,183.2 361.5,177.1 363.7,176.4 365.9,173.8 368.1,169.6 370.3,178.3 372.5,174.2 374.7,174.7 376.9,172.9 379,173.5 381.2,179.5 383.4,174.1 385.6,179.8 387.8,179.8 390,176.9 392.2,177.8 394.4,176.8 396.6,178.4 398.8,184.4 401,179 403.1,177.5 405.3,176.6 407.5,177.9 409.7,177.2 411.9,178.3 414.1,178.8 416.3,177.8 418.5,176.6 420.7,176.1 422.9,175.2 425,170.6 427.2,171.7 429.4,173.7 431.6,174.7 433.8,179.7 436,180.7 438.2,177.5 440.4,182.7 442.6,187.6 444.8,183.3 447,180.1 449.1,184.8 451.3,185.6 453.5,182.3 455.7,186.1 457.9,183.2 460.1,178.7 462.3,184.3 464.5,189.7 466.7,182 468.9,179.4 471,180.9 473.2,183.2 475.4,182.7 477.6,180.3 479.8,173.9 482,173.9 484.2,178.5 486.4,176.4 488.6,174 490.8,176.4 493,176.8 495.1,174.6 497.3,176.5 499.5,177.3 501.7,178.8 503.9,177.6 506.1,181.7 508.3,176.9 510.5,177.1 512.7,176 514.9,175.5 517,175.1 519.2,174.6 521.4,175.1 523.6,174 525.8,174.6 528,175.8 530.2,175.1 532.4,178.3 534.6,175.3 536.8,175.1 539,175.2 541.1,176.9 543.3,178.6 545.5,179.6 547.7,175.9 549.9,175.5 552.1,172.9 554.3,163.2 556.5,163.7 558.7,161.5 560.9,164.2 563,165.7 565.2,169.9 567.4,165.7 569.6,167.8 571.8,172.2 574,176.8 576.2,169.1 578.4,168.3 580.6,164.4 582.8,153.7 585,164.5 587.1,163.8 589.3,166 591.5,165.8 593.7,165.1 595.9,163.4 598.1,163.7 600.3,166.5 602.5,168.3 604.7,169.5 606.9,174.4 609,168.1 611.2,169.5 613.4,169.4 615.6,165.3 617.8,166.1 620,170.5 622.2,171.8 624.4,174.6 626.6,179.8 628.8,182.1 631,183.8 633.1,179 635.3,179.4 637.5,186.6 639.7,190 641.9,191.7 644.1,190.8 646.3,189.5 648.5,181.2 650.7,182.3 652.9,176.7 655,185.5 657.2,184 659.4,178.5 661.6,176.9 663.8,180.9 666,178.5 668.2,178 670.4,181.3 672.6,183.3 674.8,184.1 677,190.5 679.1,190.7 681.3,200.2 683.5,188.6 685.7,182.7 687.9,183.8 690.1,176.6 692.3,176.7 694.5,173.6 696.7,174.3 698.9,172.3 701,179.6 703.2,177.3 705.4,190.9 707.6,186.2 709.8,188.5 712,181.7 714.2,176.3 716.4,157.8 718.6,140.5 720.8,124.8 723,131.3 725.1,135.3 727.3,137.1 729.5,121.4 731.7,120.8 733.9,127.9 736.1,103.2 738.3,89.5 740.5,96.2 742.7,88.8 744.9,95.3 747,130.8 749.2,158.1 751.4,179.7 753.6,228 755.8,217.9 758,262.4 760.2,247.9 762.4,264.7 764.6,249.1 766.8,244.9 769,241 771.1,266.9 773.3,258.7 775.5,279.3 777.7,258.4 779.9,264.5 782.1,267.9 784.3,246.6 786.5,269.3 788.7,263.3 790.9,237.2 793,240.7 795.2,244 797.4,223.4 799.6,198.5 801.8,184.4 804,191 806.2,198 808.4,192.9 810.6,199 812.8,203.7 815,194.9 817.1,192.1 819.3,187.5 821.5,173.4 823.7,193.5 825.9,183.8 828.1,173.8 830.3,174.6 832.5,188.4 834.7,197.8 836.9,185.6 839,191.2 841.2,194.8 843.4,200 845.6,193.9 847.8,197.4 850,191.6 852.2,193 854.4,195.6 856.6,199.5 858.8,197.5 861,201.6 863.1,200.7 865.3,202.7 867.5,204.8 869.7,199.2 871.9,204.4 874.1,201.4 876.3,198.3 878.5,193.1 880.7,189.7 882.9,186.2 885,191.7 887.2,193.4 889.4,191.3 891.6,192.6 893.8,191.4 896,194.4 898.2,193.2 900.4,189.9 902.6,189.4 904.8,194 907,193.9 909.1,201.7 911.3,210.9 913.5,218.5 915.7,206.7 917.9,216.5 920.1,214.6 922.3,220.1 924.5,219.7 926.7,202.9 928.9,203 931,192.5 933.2,200.3 935.4,201.1 937.6,199.1 939.8,201.6 942,209.6"/><polyline fill="none" stroke="#bc4c00" stroke-width="1.7" stroke-linejoin="round" stroke-linecap="round" stroke-dasharray="4 2" points="68,167.1 70.2,160 72.4,146 74.6,131.2 76.8,123 79,122.8 81.1,124.3 83.3,120.8 85.5,107.9 87.7,105.8 89.9,99.4 92.1,87.9 94.3,85.5 96.5,84.8 98.7,94.8 100.9,117.9 103,142.2 105.2,173.9 107.4,212.6 109.6,239 111.8,258.1 114,279 116.2,300.4 118.4,308.1 120.6,322 122.8,325.9 125,323.2 127.1,305.6 129.3,283.9 131.5,269.7 133.7,256.9 135.9,244.1 138.1,241.8 140.3,229.5 142.5,235.8 144.7,234.7 146.9,229.4 149,221 151.2,220.9 153.4,207 155.6,197.7 157.8,195.1 160,189.6 162.2,180.4 164.4,175.7 166.6,174.5 168.8,180.3 171,183.9 173.1,188.2 175.3,190.3 177.5,192.2 179.7,187.8 181.9,196.3 184.1,200.4 186.3,206.5 188.5,196 190.7,187.5 192.9,185.3 195,179.5 197.2,173.4 199.4,174.6 201.6,180.9 203.8,176.9 206,180.1 208.2,191.6 210.4,190.6 212.6,195 214.8,197 217,198.7 219.1,204.2 221.3,199.6 223.5,203.7 225.7,197.6 227.9,200.7 230.1,195.8 232.3,187.6 234.5,188.6 236.7,194.7 238.9,199.9 241,199.3 243.2,203.9 245.4,204.1 247.6,210.4 249.8,210.9 252,213.9 254.2,210 256.4,212 258.6,216 260.8,210.3 263,211 265.1,200.4 267.3,194.5 269.5,194.4 271.7,203.7 273.9,197.9 276.1,198.2 278.3,208.6 280.5,205.3 282.7,210 284.9,205 287,211.6 289.2,207.7 291.4,208.8 293.6,204.5 295.8,204.4 298,207.5 300.2,203.1 302.4,199.2 304.6,196.4 306.8,191.3 309,183.2 311.1,183.8 313.3,185 315.5,188.3 317.7,188.7 319.9,185.6 322.1,185.2 324.3,181.2 326.5,186.2 328.7,184.7 330.9,192 333,184.7 335.2,182.3 337.4,177.5 339.6,183.4 341.8,184.8 344,185.9 346.2,183.8 348.4,188.7 350.6,186.5 352.8,180.2 355,185.2 357.1,183.3 359.3,182.8 361.5,173.7 363.7,170.2 365.9,168.7 368.1,165.3 370.3,175 372.5,168.1 374.7,169.7 376.9,167.3 379,169.6 381.2,178.6 383.4,175.9 385.6,184.4 387.8,186.2 390,181.6 392.2,183.7 394.4,181.4 396.6,185.4 398.8,192.4 401,182.4 403.1,176.4 405.3,172.6 407.5,176.8 409.7,172.5 411.9,177.6 414.1,179.4 416.3,173.6 418.5,169.6 420.7,169.1 422.9,168.7 425,165.3 427.2,165 429.4,172.6 431.6,173.8 433.8,180.3 436,184.9 438.2,183.3 440.4,189.7 442.6,193.9 444.8,187.9 447,184.6 449.1,191 451.3,191.2 453.5,185.9 455.7,189.8 457.9,184.1 460.1,177.8 462.3,180.5 464.5,186.9 466.7,177.6 468.9,172.9 471,173.9 473.2,180.9 475.4,179.4 477.6,175 479.8,167.5 482,166.9 484.2,176 486.4,171.2 488.6,167.2 490.8,173.8 493,177.7 495.1,170.7 497.3,177 499.5,181.4 501.7,184.7 503.9,182.8 506.1,190 508.3,179.6 510.5,180.4 512.7,174.2 514.9,173.8 517,172.6 519.2,168.7 521.4,170 523.6,167.2 525.8,168.5 528,174.4 530.2,172.4 532.4,180.1 534.6,173.6 536.8,172.8 539,174.6 541.1,182.4 543.3,186 545.5,187.5 547.7,178.6 549.9,176.5 552.1,168.1 554.3,161.8 556.5,157.7 558.7,155.7 560.9,156.8 563,158.9 565.2,165.9 567.4,160.4 569.6,165.6 571.8,173.3 574,178.8 576.2,170 578.4,164.3 580.6,165.3 582.8,159.1 585,166.9 587.1,164 589.3,166.3 591.5,166.1 593.7,162 595.9,156.4 598.1,158.3 600.3,167.9 602.5,172.4 604.7,176.7 606.9,182.9 609,173.9 611.2,178.1 613.4,174.9 615.6,168 617.8,164.2 620,168.7 622.2,173.5 624.4,177.8 626.6,182.8 628.8,189.4 631,188.8 633.1,185.4 635.3,183.4 637.5,189.2 639.7,194.4 641.9,198.3 644.1,198.2 646.3,195.4 648.5,186.3 650.7,183.3 652.9,175.1 655,182.4 657.2,177.6 659.4,173 661.6,170.3 663.8,174.9 666,172.4 668.2,172.9 670.4,179.3 672.6,182.9 674.8,184.3 677,191 679.1,195.5 681.3,204 683.5,196.9 685.7,188.3 687.9,186.3 690.1,177.1 692.3,172.9 694.5,169.6 696.7,167.3 698.9,165.5 701,172.4 703.2,169.2 705.4,181.4 707.6,184.9 709.8,189 712,184.2 714.2,177.6 716.4,164.2 718.6,152.1 720.8,138.2 723,129.9 725.1,125.6 727.3,120.4 729.5,111.2 731.7,108.1 733.9,108.3 736.1,100.4 738.3,90.9 740.5,89.6 742.7,86.6 744.9,89.8 747,105.6 749.2,131.6 751.4,156.2 753.6,195.1 755.8,215.4 758,250.2 760.2,268 762.4,288.7 764.6,295 766.8,297.2 769,292.6 771.1,294 773.3,286.5 775.5,287.2 777.7,274.8 779.9,263.5 782.1,256.8 784.3,244.4 786.5,243.9 788.7,244.6 790.9,237.9 793,235.6 795.2,236.3 797.4,223.1 799.6,204.3 801.8,191.2 804,180.2 806.2,177.7 808.4,171.7 810.6,173.7 812.8,179.5 815,183.5 817.1,185 819.3,186.9 821.5,180.8 823.7,188.6 825.9,188.9 828.1,184.6 830.3,184.9 832.5,187.9 834.7,194.1 836.9,190.6 839,194.2 841.2,196 843.4,200.1 845.6,199.3 847.8,204.6 850,197.4 852.2,199.2 854.4,202.4 856.6,206.4 858.8,202.2 861,205.2 863.1,202.4 865.3,202.8 867.5,206.9 869.7,198.6 871.9,202.7 874.1,201.8 876.3,195.8 878.5,189.5 880.7,183.8 882.9,182.7 885,184.7 887.2,186.4 889.4,184.4 891.6,187.2 893.8,185.8 896,192.5 898.2,193.5 900.4,191 902.6,189.4 904.8,197 907,197.9 909.1,206.3 911.3,213.7 913.5,219 915.7,215.5 917.9,219.4 920.1,218.4 922.3,222.4 924.5,224.2 926.7,213.9 928.9,211.1 931,200.8 933.2,199 935.4,196.9 937.6,192.5 939.8,193.4 942,198.8"/><polyline fill="none" stroke="#953800" stroke-width="1.5" stroke-linejoin="round" stroke-linecap="round" stroke-dasharray="1 2" points="68,159.6 70.2,151.4 72.4,136.6 74.6,112.2 76.8,109.6 79,120.6 81.1,130.1 83.3,130.5 85.5,116.7 87.7,121.6 89.9,109.7 92.1,89.3 94.3,85.5 96.5,84.9 98.7,104.9 100.9,132.3 103,168.8 105.2,199.4 107.4,244.9 109.6,267.4 111.8,275.8 114,285.6 116.2,300.1 118.4,290 120.6,287.1 122.8,277.2 125,270.9 127.1,252.7 129.3,236 131.5,230.9 133.7,240.6 135.9,245.4 138.1,256.1 140.3,248.2 142.5,260.3 144.7,257 146.9,246.1 149,230 151.2,226.5 153.4,211.6 155.6,200 157.8,194.5 160,186.6 162.2,180.1 164.4,173.2 166.6,179.2 168.8,194.3 171,206.7 173.1,210.2 175.3,203.9 177.5,198.7 179.7,187.2 181.9,194 184.1,198.9 186.3,197.2 188.5,183.7 190.7,173.8 192.9,174.4 195,167.1 197.2,168.4 199.4,174 201.6,186.5 203.8,184.2 206,190.7 208.2,204.8 210.4,194.5 212.6,195.1 214.8,197 217,199.2 219.1,207 221.3,195.8 223.5,199.5 225.7,181.8 227.9,190.2 230.1,187.8 232.3,184.6 234.5,188.7 236.7,198.9 238.9,209.9 241,205.5 243.2,208.7 245.4,206 247.6,217.8 249.8,210.9 252,211.8 254.2,209.6 256.4,207.2 258.6,212 260.8,202 263,204.2 265.1,194.7 267.3,186.3 269.5,195.5 271.7,207.6 273.9,204.3 276.1,205.4 278.3,216.9 280.5,207.4 282.7,214.6 284.9,208.1 287,214 289.2,206 291.4,203.4 293.6,200.4 295.8,198.6 298,205.7 300.2,197.8 302.4,193.7 304.6,197.1 306.8,190.1 309,185.3 311.1,186.3 313.3,184.7 315.5,190.6 317.7,196.7 319.9,187.8 322.1,184.6 324.3,184.1 326.5,187.9 328.7,188.2 330.9,194.8 333,185.8 335.2,179.2 337.4,172.3 339.6,180.7 341.8,182.2 344,188.7 346.2,184.4 348.4,192 350.6,190.6 352.8,179.5 355,184.2 357.1,180.3 359.3,178.3 361.5,167.2 363.7,167.6 365.9,165.7 368.1,162.2 370.3,177.3 372.5,169 374.7,172.4 376.9,176 379,177.7 381.2,188.5 383.4,175.8 385.6,188.4 387.8,187 390,178.2 392.2,177.4 394.4,176.8 396.6,183.9 398.8,189.5 401,176.9 403.1,170.2 405.3,170.3 407.5,176.3 409.7,171.2 411.9,180.2 414.1,179.8 416.3,178.6 418.5,169 420.7,169.8 422.9,168.4 425,162.2 427.2,167.6 429.4,173.8 431.6,180.1 433.8,190 436,190.3 438.2,183.9 440.4,189 442.6,195.2 444.8,189.9 447,180.2 449.1,186.6 451.3,183.6 453.5,177.8 455.7,181.8 457.9,178.6 460.1,174.8 462.3,183.5 464.5,193.3 466.7,180.3 468.9,175 471,174 473.2,183.5 475.4,181.1 477.6,172.7 479.8,164.3 482,166.2 484.2,177.7 486.4,171.8 488.6,170.6 490.8,179.7 493,180 495.1,171.3 497.3,181.4 499.5,183.5 501.7,189.6 503.9,182.4 506.1,187.5 508.3,171.3 510.5,180.5 512.7,167.2 514.9,165.2 517,164.4 519.2,167 521.4,174.1 523.6,170.7 525.8,169.8 528,178.2 530.2,180.8 532.4,189.2 534.6,173 536.8,173.8 539,176.9 541.1,180.4 543.3,185.2 545.5,185.4 547.7,173 549.9,168.5 552.1,163.9 554.3,152.1 556.5,155.4 558.7,152.8 560.9,158.2 563,163.8 565.2,174.9 567.4,168 569.6,172.8 571.8,180.6 574,188.3 576.2,169.6 578.4,164.7 580.6,158.8 582.8,146.2 585,157.8 587.1,155.4 589.3,164.6 591.5,170.5 593.7,163.7 595.9,159.2 598.1,164.4 600.3,176.4 602.5,180.8 604.7,181.3 606.9,186.1 609,167.3 611.2,176.4 613.4,164.3 615.6,153.8 617.8,154.8 620,173.2 622.2,178.7 624.4,184.3 626.6,191.1 628.8,192.2 631,192.8 633.1,183.2 635.3,182.3 637.5,193.8 639.7,197.3 641.9,194.9 644.1,189.5 646.3,186.8 648.5,174.7 650.7,174.9 652.9,172.5 655,182.7 657.2,184.3 659.4,178.2 661.6,171 663.8,175.1 666,174.3 668.2,175.4 670.4,185.5 672.6,191.2 674.8,193.3 677,201.5 679.1,199.4 681.3,203.6 683.5,189.8 685.7,176.8 687.9,176.5 690.1,165.7 692.3,165.4 694.5,161.2 696.7,162.7 698.9,161 701,182.2 703.2,180.9 705.4,199.3 707.6,198.5 709.8,202.5 712,187.3 714.2,170.1 716.4,149 718.6,132 720.8,113.4 723,111.2 725.1,114.6 727.3,123.6 729.5,117.4 731.7,118.1 733.9,127.7 736.1,115.6 738.3,103 740.5,100 742.7,92.4 744.9,90.1 747,115.3 749.2,142.7 751.4,176 753.6,223.7 755.8,243 758,278.7 760.2,285.2 762.4,293.3 764.6,280 766.8,261.3 769,242.3 771.1,243.1 773.3,238.4 775.5,246.9 777.7,242 779.9,249.8 782.1,258.4 784.3,253.2 786.5,266.8 788.7,270.2 790.9,252.5 793,245.3 795.2,241.8 797.4,215 799.6,194.3 801.8,174.4 804,174.2 806.2,179.7 808.4,185.2 810.6,194.4 812.8,204 815,203 817.1,203.3 819.3,198.7 821.5,188.6 823.7,193.4 825.9,187.8 828.1,178.1 830.3,170 832.5,177.2 834.7,191.2 836.9,182.6 839,192.1 841.2,205.1 843.4,211.3 845.6,205.5 847.8,206.2 850,189.6 852.2,191.6 854.4,193.4 856.6,199.4 858.8,195.8 861,202.9 863.1,201.2 865.3,204.7 867.5,207.7 869.7,200 871.9,208.5 874.1,203.5 876.3,189.7 878.5,181 880.7,179.4 882.9,175.3 885,182.2 887.2,189.8 889.4,191.8 891.6,196.3 893.8,197.6 896,200.1 898.2,198.1 900.4,191.2 902.6,189.2 904.8,195.9 907,197 909.1,205.6 911.3,214.5 913.5,222.6 915.7,209.8 917.9,220.1 920.1,220.1 922.3,223.5 924.5,222.5 926.7,203.4 928.9,197.8 931,185.5 933.2,189.8 935.4,190.9 937.6,191 939.8,196.8 942,211.9"/><polyline fill="none" stroke="#cf222e" stroke-width="1.7" stroke-linejoin="round" stroke-linecap="round" stroke-dasharray="6 3" points="68,160.2 70.2,155.8 72.4,142.1 74.6,124.2 76.8,126.3 79,136.9 81.1,141.3 83.3,134.4 85.5,114.5 87.7,118.2 89.9,105.8 92.1,87.9 94.3,89.9 96.5,91.6 98.7,110.2 100.9,135.6 103,161.1 105.2,184.6 107.4,221.2 109.6,232.1 111.8,236.2 114,249.7 116.2,269.2 118.4,265.3 120.6,277.9 122.8,280 125,282.5 127.1,268.1 129.3,255.9 131.5,256.5 133.7,262.3 135.9,258.9 138.1,264.6 140.3,248.3 142.5,260.7 144.7,253.5 146.9,241.3 149,227.4 151.2,229.5 153.4,212.6 155.6,203.9 157.8,203.4 160,197.1 162.2,188.9 164.4,183.8 166.6,187.8 168.8,198.6 171,201.7 173.1,199.7 175.3,192.6 177.5,189.7 179.7,180.3 181.9,193.7 184.1,198.2 186.3,199.7 188.5,183.8 190.7,176.6 192.9,180.9 195,174.9 197.2,174.5 199.4,180 201.6,190.4 203.8,181.5 206,186.2 208.2,199.9 210.4,187.4 212.6,191.2 214.8,193.5 217,195.5 219.1,203.4 221.3,191.4 223.5,199.2 225.7,185 227.9,197.5 230.1,192.8 232.3,186.4 234.5,191.8 236.7,201.7 238.9,208.1 241,200.5 243.2,204.8 245.4,202 247.6,213.4 249.8,206.6 252,209.9 254.2,205.9 256.4,207.4 258.6,214.2 260.8,203.6 263,208.5 265.1,196.3 267.3,191.1 269.5,200.4 271.7,213.2 273.9,202.5 276.1,202.5 278.3,215.7 280.5,203.5 282.7,211.8 284.9,202.7 287,212.2 289.2,203.3 291.4,204.7 293.6,201.2 295.8,202.1 298,209.6 300.2,200.4 302.4,197.1 304.6,199.1 306.8,191.5 309,185 311.1,188.6 313.3,188.8 315.5,194.3 317.7,195.7 319.9,185.7 322.1,184.8 324.3,182.5 326.5,189.1 328.7,186.7 330.9,195.1 333,181.9 335.2,178.3 337.4,173.5 339.6,185.7 341.8,186.1 344,189.3 346.2,183.2 348.4,191.2 350.6,186.6 352.8,175.5 355,185.1 357.1,181.1 359.3,180.7 361.5,168.8 363.7,170.5 365.9,170.2 368.1,166.8 370.3,183.6 372.5,169.4 374.7,173.1 376.9,172.3 379,173.7 381.2,184.9 383.4,171.4 385.6,186.3 387.8,183.7 390,174.5 392.2,178.2 394.4,177.5 396.6,185.6 398.8,192.4 401,175.5 403.1,170.8 405.3,172 407.5,180.4 409.7,173.1 411.9,182.8 414.1,181.4 416.3,175.3 418.5,167.3 420.7,170.2 422.9,170 425,164.5 427.2,169.1 429.4,177.4 431.6,178.9 433.8,186.2 436,185.4 438.2,178.3 440.4,187 442.6,192.3 444.8,183 447,176.6 449.1,188.5 451.3,186.6 453.5,180.2 455.7,188.1 457.9,182 460.1,176.7 462.3,185.8 464.5,194.3 466.7,176.3 468.9,172.3 471,175.1 473.2,186.5 475.4,181.2 477.6,172.7 479.8,164.7 482,168.9 484.2,182.8 486.4,172.2 488.6,168.8 490.8,179.4 493,179.5 495.1,167.7 497.3,180.1 499.5,182.2 501.7,186.1 503.9,178.2 506.1,187.6 508.3,169.6 510.5,180.2 512.7,168.2 514.9,170.7 517,171.5 519.2,171.3 521.4,176.4 523.6,170.3 525.8,170.8 528,179.6 530.2,176.6 532.4,185.2 534.6,167.7 536.8,170.7 539,175.1 541.1,182.3 543.3,185.9 545.5,184.9 547.7,170.8 549.9,170.6 552.1,165.1 554.3,157.3 556.5,160.8 558.7,159.2 560.9,163.9 563,167 565.2,175.6 567.4,162.8 569.6,169.3 571.8,177.3 574,182.1 576.2,161.3 578.4,158.5 580.6,159.6 582.8,150.9 585,168.1 587.1,163 589.3,170.1 591.5,170.8 593.7,161.5 595.9,155.9 598.1,162.2 600.3,175.1 602.5,176.3 604.7,176.4 606.9,181.7 609,162.3 611.2,175.6 613.4,166.2 615.6,158.8 617.8,161.7 620,177.5 622.2,180 624.4,182.5 626.6,186.7 628.8,188.7 631,186.3 633.1,178 635.3,178.8 637.5,191.4 639.7,194.7 641.9,194.2 644.1,190.8 646.3,188.9 648.5,177.6 650.7,180.7 652.9,175.8 655,189.3 657.2,184 659.4,176.1 661.6,171.2 663.8,179 666,175.8 668.2,176.5 670.4,186.2 672.6,188.2 674.8,187 677,194.4 679.1,192.9 681.3,200.4 683.5,185.5 685.7,175.8 687.9,180.3 690.1,170.7 692.3,172.4 694.5,170.1 696.7,171.4 698.9,169.5 701,186.6 703.2,177.3 705.4,194.2 707.6,189.1 709.8,191.1 712,176.4 714.2,165.4 716.4,150.2 718.6,141.2 720.8,129.9 723,131.9 725.1,135.2 727.3,136.9 729.5,124.1 731.7,122.3 733.9,126.5 736.1,109.8 738.3,96.6 740.5,97.2 742.7,91.7 744.9,94.3 747,119.8 749.2,145.6 751.4,168.9 753.6,208.1 755.8,212.4 758,243.9 760.2,244.9 762.4,257.6 764.6,251.2 766.8,247.4 769,243.6 771.1,258 773.3,258 775.5,271.3 777.7,262.7 779.9,264.1 782.1,266.4 784.3,254.2 786.5,263.6 788.7,263.1 790.9,245.3 793,242.7 795.2,243.8 797.4,220.2 799.6,202.5 801.8,191.2 804,192 806.2,196.6 808.4,193.8 810.6,197.4 812.8,201.4 815,197 817.1,194 819.3,189.9 821.5,178.8 823.7,189.5 825.9,185.1 828.1,177.1 830.3,175.9 832.5,185.3 834.7,197 836.9,185.4 839,194.2 841.2,200.6 843.4,202.9 845.6,195.6 847.8,200.3 850,185.4 852.2,193 854.4,198.2 856.6,204.8 858.8,198.2 861,205.6 863.1,201.1 865.3,203.8 867.5,207.9 869.7,196.1 871.9,206.2 874.1,201.1 876.3,189.8 878.5,184.6 880.7,184 882.9,183.7 885,190.8 887.2,194.7 889.4,191.3 891.6,194 893.8,191 896,195.8 898.2,193.2 900.4,187.1 902.6,186.6 904.8,197.3 907,196.8 909.1,206.8 911.3,214.1 913.5,218.6 915.7,205.3 917.9,216.5 920.1,214.5 922.3,219.4 924.5,219.5 926.7,201.4 928.9,202.7 931,192.9 933.2,200.2 935.4,200.8 937.6,198 939.8,202.1 942,212.4"/><line x1="68" y1="400" x2="90" y2="400" stroke="#8c959f" stroke-width="2" stroke-linecap="round"/><text x="96" y="404" font-family="ui-sans-serif, -apple-system, Segoe UI, Helvetica, Arial, sans-serif" font-size="11.5" fill="#1f2328">Raw</text><line x1="120.6" y1="400" x2="142.6" y2="400" stroke="#0969da" stroke-width="2" stroke-linecap="round"/><text x="148.6" y="404" font-family="ui-sans-serif, -apple-system, Segoe UI, Helvetica, Arial, sans-serif" font-size="11.5" fill="#1f2328">AdaptiveEMA o2</text><line x1="241.4" y1="400" x2="263.4" y2="400" stroke="#8250df" stroke-width="2" stroke-linecap="round" stroke-dasharray="7 2 2 2"/><text x="269.4" y="404" font-family="ui-sans-serif, -apple-system, Segoe UI, Helvetica, Arial, sans-serif" font-size="11.5" fill="#1f2328">AdaptiveEMA o3</text><line x1="362.2" y1="400" x2="384.2" y2="400" stroke="#bc4c00" stroke-width="2" stroke-linecap="round" stroke-dasharray="4 2"/><text x="390.2" y="404" font-family="ui-sans-serif, -apple-system, Segoe UI, Helvetica, Arial, sans-serif" font-size="11.5" fill="#1f2328">causal S-G o2</text><line x1="476.8" y1="400" x2="498.8" y2="400" stroke="#953800" stroke-width="2" stroke-linecap="round" stroke-dasharray="1 2"/><text x="504.8" y="404" font-family="ui-sans-serif, -apple-system, Segoe UI, Helvetica, Arial, sans-serif" font-size="11.5" fill="#1f2328">causal S-G o3</text><line x1="591.4" y1="400" x2="613.4" y2="400" stroke="#cf222e" stroke-width="2" stroke-linecap="round" stroke-dasharray="6 3"/><text x="619.4" y="404" font-family="ui-sans-serif, -apple-system, Segoe UI, Helvetica, Arial, sans-serif" font-size="11.5" fill="#1f2328">best fixed EMA (alpha=0.57)</text></svg>